<svg width="17" height="16" viewBox="0 0 17 16" fill="none" xmlns="http://www.w3.org/2000/svg">
<path d="M4.00621 0.676391H10.0186C10.8488 0.676391 11.5217 1.28079 11.5217 2.02639V12.8264C11.5217 13.572 10.8488 14.1764 10.0186 14.1764H2.5031C1.67296 14.1764 1 13.572 1 12.8264L1 2.02639C1 1.28079 1.67296 0.676391 2.5031 0.676391H4.00621Z" stroke="#707070" stroke-linecap="round" stroke-linejoin="round"/>
<path d="M9.30479 0.52204L15.2259 1.56609C16.0434 1.71024 16.6012 2.42231 16.4717 3.15659L14.5963 13.7925C14.4668 14.5268 13.6992 15.0051 12.8816 14.861L5.48027 13.5559C4.66274 13.4118 4.10496 12.6997 4.23443 11.9654L6.10983 1.32951C6.2393 0.59523 7.00699 0.116876 7.82452 0.261029L9.30479 0.52204Z" fill="#0C0C0C"/>
</svg>
