<svg width="14" height="16" viewBox="0 0 14 16" fill="none" xmlns="http://www.w3.org/2000/svg">
<path d="M4.00621 0.676391H10.0186C10.8488 0.676391 11.5217 1.28079 11.5217 2.02639V12.8264C11.5217 13.572 10.8488 14.1764 10.0186 14.1764H2.5031C1.67296 14.1764 1 13.572 1 12.8264L1 2.02639C1 1.28079 1.67296 0.676391 2.5031 0.676391H4.00621Z" stroke="#656565" stroke-width="0.5" stroke-linecap="round" stroke-linejoin="round"/>
<path d="M6.30479 0.52204L12.2259 1.56609C13.0434 1.71024 13.6012 2.42231 13.4717 3.15659L11.5963 13.7925C11.4668 14.5268 10.6992 15.0051 9.88162 14.861L2.48027 13.5559C1.66274 13.4118 1.10496 12.6997 1.23443 11.9654L3.10983 1.32951C3.2393 0.59523 4.00699 0.116876 4.82452 0.261029L6.30479 0.52204Z" fill="#0C0C0C"/>
</svg>
