<svg width="16" height="19" viewBox="0 0 16 19" fill="none" xmlns="http://www.w3.org/2000/svg">
<path d="M3.20062 0.800103H9.60187C10.4857 0.800103 11.2022 1.51656 11.2022 2.40041V15.2029C11.2022 16.0867 10.4857 16.8032 9.60187 16.8032H1.60031C0.716484 16.8032 0 16.0867 0 15.2029L0 2.40041C0 1.51656 0.716484 0.800103 1.60031 0.800103H3.20062Z" fill="#4F4F4F"/>
<path d="M8.48099 1.09463L14.4962 3.28398C15.3267 3.58628 15.755 4.50457 15.4527 5.33512L11.0739 17.3655C10.7717 18.1961 9.85336 18.6243 9.02281 18.322L1.5038 15.5853C0.673274 15.283 0.245052 14.3647 0.547339 13.5342L4.92605 1.50375C5.22835 0.673202 6.14666 0.245002 6.97719 0.547289L8.48099 1.09463Z" fill="#0C0C0C"/>
</svg>
